<svg width="336" height="336" viewBox="0 0 336 336" fill="none" xmlns="http://www.w3.org/2000/svg">
<g clip-path="url(#clip0_102_4999)">
<path d="M295.208 254.446C278.669 287.494 244.511 310.216 205.04 310.216C149.36 310.216 104.246 265.072 104.246 209.422C104.246 153.772 149.39 108.628 205.04 108.628C211.223 108.628 217.256 109.199 223.11 110.279L168 0L0 336H336L295.208 254.446Z" fill="#D02C2F"/>
<path d="M205.04 259.79C232.873 259.79 255.437 237.227 255.437 209.393C255.437 181.56 232.873 158.996 205.04 158.996C177.206 158.996 154.643 181.56 154.643 209.393C154.643 237.227 177.206 259.79 205.04 259.79Z" fill="#D02C2F"/>
</g>
<defs>
<clipPath id="clip0_102_4999">
<rect width="336" height="336" fill="white"/>
</clipPath>
</defs>
</svg>
